# xmcd
#
# Track frame offsets:
#	150
#	19990
#	43715
#	67445
#	96912
#	118022
#	146117
#	165312
#	193422
#	219702
#
# Disc length: 3208
#
# Revision: 1
# Processed by: cddbd v1.5.1PL0 Copyright (c) Steve Scherf et al.
# Submitted via: CDex 1.51
# Normalized: r0:TRMNUM
#
DISCID=a10c860a
DTITLE=Rien Djamain - Sepanjang Kenangan
DYEAR=1997
DGENRE=Jazz
TTITLE0=Sepanjang Jalan Kenangan
TTITLE1=Dirimu Semakin Mempesona
TTITLE2=Desmber kelabu
TTITLE3=Sendiri Lagi
TTITLE4=Antara Anyer dan Jakarta
TTITLE5=Kesepian
TTITLE6=Citra
TTITLE7=Kau Yang Kusayang
TTITLE8=Akhir Cinta
TTITLE9=Burung kakatua
EXTD=YEAR: 1997
EXTT0=
EXTT1=
EXTT2=
EXTT3=
EXTT4=
EXTT5=
EXTT6=
EXTT7=
EXTT8=
EXTT9=
PLAYORDER=
